# xmcd
#
# Track frame offsets:
#	150
#	14021
#	27062
#	37899
#	50465
#	61932
#	75018
#	86427
#	98449
#	111020
#	125089
#	139916
#	152725
#	165466
#	177853
#	190337
#	202069
#	213345
#	226576
#	240620
#	254899
#	266891
#	279622
#	293661
#	308023
#	322632
#	334704
#
# Disc length: 4636 seconds
#
# Revision: 0
# Processed by: cddbd v1.5.2PL0 Copyright (c) Steve Scherf et al.
# Submitted via: EasyCDDAExtractor 15.3.0.1
#
DISCID=6b121a1b
DTITLE=Tuttle Wesley - Detour Cd 1
DYEAR=1900
DGENRE=
TTITLE0=Detour
TTITLE1=I Wish I Had Never Seen Sunshine
TTITLE2=Little You Cared
TTITLE3=Why Do I Love  You Oh Why
TTITLE4=I Know It's Wrong
TTITLE5=With Tears In My Eyes
TTITLE6=I Want To Be Wanted (1945 Uniss.)
TTITLE7=Too Little Too Late
TTITLE8=I Can't Forget You (Tho I Tried)
TTITLE9=I'd Trade All Of My Tomorrows
TTITLE10=When You Cry (You Cry Alone)
TTITLE11=Don't Play Around With My Heart
TTITLE12=Until Dawn
TTITLE13=Broken Promise Means A Broken Heart
TTITLE14=Let's Forget (1945 Uniss.)
TTITLE15=Excess Baggage
TTITLE16=If You Ever Need A Friend
TTITLE17=I've Love You Too Long To Forget
TTITLE18=No Childred Allowed
TTITLE19=Old Shep
TTITLE20=Mail Order Mama
TTITLE21=Too Bad About You
TTITLE22=You Can't Fool My Broken Heart
TTITLE23=please write to me harv a lee (1946 uniss.)
TTITLE24=Cry Yourself To Sleep
TTITLE25=I'm Writing A Letter To Heaven
TTITLE26=Mom Undertands
EXTD=
EXTT0=
EXTT1=
EXTT2=
EXTT3=
EXTT4=
EXTT5=
EXTT6=
EXTT7=
EXTT8=
EXTT9=
EXTT10=
EXTT11=
EXTT12=
EXTT13=
EXTT14=
EXTT15=
EXTT16=
EXTT17=
EXTT18=
EXTT19=
EXTT20=
EXTT21=
EXTT22=
EXTT23=
EXTT24=
EXTT25=
EXTT26=
PLAYORDER=
